<?xml version="1.0" encoding="UTF-8" standalone="no"?>
<!-- Created with Inkscape (http://www.inkscape.org/) -->

<svg
   xmlns:dc="http://purl.org/dc/elements/1.1/"
   xmlns:cc="http://creativecommons.org/ns#"
   xmlns:rdf="http://www.w3.org/1999/02/22-rdf-syntax-ns#"
   xmlns:svg="http://www.w3.org/2000/svg"
   xmlns="http://www.w3.org/2000/svg"
   xmlns:sodipodi="http://sodipodi.sourceforge.net/DTD/sodipodi-0.dtd"
   xmlns:inkscape="http://www.inkscape.org/namespaces/inkscape"
   version="1.1"
   id="svg2"
   xml:space="preserve"
   width="380.00391"
   height="44.691082"
   viewBox="0 0 380.00391 44.691082"
   sodipodi:docname="utf.svg"
   inkscape:version="0.92.1 r15371"><metadata
     id="metadata8"><rdf:RDF><cc:Work
         rdf:about=""><dc:format>image/svg+xml</dc:format><dc:type
           rdf:resource="http://purl.org/dc/dcmitype/StillImage" /><dc:title></dc:title></cc:Work></rdf:RDF></metadata><defs
     id="defs6" /><sodipodi:namedview
     pagecolor="#ffffff"
     bordercolor="#666666"
     borderopacity="1"
     objecttolerance="10"
     gridtolerance="10"
     guidetolerance="10"
     inkscape:pageopacity="0"
     inkscape:pageshadow="2"
     inkscape:window-width="1920"
     inkscape:window-height="1013"
     id="namedview4"
     showgrid="false"
     fit-margin-top="0"
     fit-margin-left="0"
     fit-margin-right="0"
     fit-margin-bottom="0"
     inkscape:zoom="2.8284271"
     inkscape:cx="168.03674"
     inkscape:cy="-16.278827"
     inkscape:window-x="-9"
     inkscape:window-y="-9"
     inkscape:window-maximized="1"
     inkscape:current-layer="g10" /><g
     id="g10"
     inkscape:groupmode="layer"
     inkscape:label="ink_ext_XXXXXX"
     transform="matrix(1.3333333,0,0,-1.3333333,0,139.38533)"><g
       id="g12"
       transform="matrix(0.03130732,0,0,0.03130732,0.68343859,71.810641)"
       style=""><path
         d="m 16.3672,85.2773 h 15.5 v -41.875 c 0,-6.6445 0.1992,-10.9648 0.5742,-12.9257 0.6641,-3.168 2.2539,-5.7071 4.7383,-7.6172 2.5039,-1.9258 5.918,-2.8789 10.25,-2.8789 4.3945,0 7.7187,0.9023 9.957,2.7187 2.2344,1.8008 3.5781,4.0313 4.0235,6.6563 0.4648,2.6484 0.6796,7.0273 0.6796,13.1445 v 42.7773 h 15.5 V 44.6641 c 0,-9.2891 -0.414,-15.8438 -1.2539,-19.6797 -0.8398,-3.8321 -2.3789,-7.0547 -4.6328,-9.7031 -2.25,-2.629 -5.2734,-4.7344 -9.0273,-6.30083 -3.7695,-1.56641 -8.707,-2.34375 -14.7852,-2.34375 -7.332,0 -12.8906,0.84766 -16.6836,2.55859 -3.789,1.71099 -6.7773,3.92189 -8.9687,6.64449 -2.2031,2.7188 -3.6524,5.5821 -4.3516,8.5665 -1.0156,4.4335 -1.5195,10.9687 -1.5195,19.625 z M 94.0938,7.95313 V 85.2773 H 109.18 l 31.433,-51.6328 v 51.6328 h 14.41 V 7.95313 h -15.57 L 108.504,58.3828 V 7.95313 Z m 76.8442,0 V 85.2773 h 15.5 V 7.95313 Z m 49.867,0 -27.446,77.32417 h 16.825 l 19.414,-57.2304 18.812,57.2304 h 16.449 l -27.5,-77.32417 z m 51.976,0 V 85.2773 h 56.926 V 72.1914 H 288.281 V 55.0547 h 38.547 V 42.0352 H 288.281 V 20.9883 h 42.895 V 7.95313 Z m 71.586,0 V 85.2773 h 32.653 c 8.203,0 14.156,-0.6992 17.875,-2.0859 3.722,-1.3828 6.707,-3.8555 8.945,-7.3984 2.234,-3.5664 3.34,-7.6172 3.34,-12.1875 0,-5.7969 -1.696,-10.6055 -5.075,-14.3867 -3.378,-3.7618 -8.46,-6.1563 -15.199,-7.1329 3.36,-1.9765 6.133,-4.1406 8.313,-6.4961 2.179,-2.3593 5.113,-6.5351 8.812,-12.5507 L 413.418,7.95313 H 394.879 L 383.668,24.7852 c -3.988,6.0195 -6.703,9.7968 -8.168,11.3593 -1.469,1.5703 -3.027,2.6328 -4.672,3.2227 -1.64,0.582 -4.234,0.8672 -7.808,0.8672 h -3.129 V 7.95313 Z m 15.524,44.63277 h 11.457 c 7.437,0 12.09,0.3047 13.949,0.9375 1.84,0.6289 3.289,1.7266 4.344,3.2774 1.039,1.5469 1.574,3.4726 1.574,5.7969 0,2.6093 -0.699,4.6953 -2.074,6.3007 -1.375,1.6016 -3.325,2.6094 -5.848,3.0391 -1.254,0.1641 -5.023,0.2539 -11.316,0.2539 h -12.086 z m 57.984,-19.4804 15.086,1.4922 c 0.894,-5.1094 2.738,-8.8555 5.527,-11.2539 2.77,-2.375 6.504,-3.5782 11.227,-3.5782 4.988,0 8.758,1.0625 11.281,3.2032 2.539,2.125 3.809,4.6093 3.809,7.4531 0,1.8359 -0.535,3.3828 -1.61,4.6601 -1.054,1.3008 -2.914,2.418 -5.578,3.3477 -1.804,0.6523 -5.953,1.7695 -12.41,3.3867 -8.309,2.0703 -14.141,4.6289 -17.484,7.6563 -4.723,4.25 -7.082,9.4296 -7.082,15.5546 0,3.9415 1.109,7.6133 3.328,11.0547 2.215,3.4219 5.418,6.0313 9.582,7.8321 4.183,1.7773 9.207,2.6797 15.109,2.6797 9.653,0 16.899,-2.1211 21.778,-6.3711 4.863,-4.2657 7.421,-9.9375 7.667,-17.0508 l -15.5,-0.6836 c -0.66,3.9805 -2.089,6.8398 -4.269,8.5703 -2.188,1.7461 -5.457,2.6094 -9.82,2.6094 -4.504,0 -8.043,-0.918 -10.582,-2.793 -1.645,-1.1836 -2.469,-2.7891 -2.469,-4.7852 0,-1.8398 0.769,-3.4023 2.305,-4.6992 1.949,-1.6562 6.707,-3.3867 14.253,-5.1679 7.543,-1.8008 13.122,-3.6563 16.731,-5.5625 3.617,-1.9258 6.441,-4.5391 8.496,-7.8672 2.035,-3.3321 3.059,-7.4414 3.059,-12.3164 0,-4.4297 -1.215,-8.586 -3.668,-12.4414 -2.45,-3.8711 -5.903,-6.75 -10.371,-8.62504 -4.469,-1.88672 -10.047,-2.82813 -16.715,-2.82813 -9.711,0 -17.164,2.25391 -22.367,6.77347 -5.204,4.5195 -8.313,11.1054 -9.313,19.75 z m 75,-25.15237 V 85.2773 h 15.5 V 7.95313 Z m 30.234,77.32417 h 28.34 c 6.383,0 11.25,-0.4843 14.61,-1.4726 4.507,-1.332 8.367,-3.707 11.566,-7.1328 3.223,-3.3985 5.668,-7.5781 7.348,-12.5117 1.664,-4.9493 2.507,-11.0391 2.507,-18.2891 0,-6.3555 -0.789,-11.8477 -2.363,-16.4609 -1.914,-5.6133 -4.648,-10.168 -8.222,-13.6446 -2.684,-2.6484 -6.313,-4.6992 -10.891,-6.17576 C 562.59,8.49219 558.012,7.95313 552.273,7.95313 H 523.109 Z M 538.613,72.1914 V 20.9883 h 11.567 c 4.328,0 7.461,0.2344 9.386,0.7383 2.504,0.6289 4.594,1.6875 6.258,3.2031 1.664,1.5117 3.004,4.0156 4.059,7.4766 1.039,3.4531 1.574,8.1875 1.574,14.164 0,5.9805 -0.535,10.5508 -1.574,13.7539 -1.055,3.211 -2.52,5.711 -4.399,7.4922 -1.894,1.8008 -4.289,3.0078 -7.183,3.6367 -2.164,0.5039 -6.403,0.7383 -12.735,0.7383 z M 669.887,7.95313 H 653.004 L 646.301,25.5234 H 615.602 L 609.273,7.95313 h -16.449 l 29.914,77.32417 h 16.395 z M 641.332,38.543 630.746,67.2383 620.375,38.543 Z m 36.719,46.7343 h 28.34 c 6.386,0 11.25,-0.4843 14.609,-1.4726 4.508,-1.332 8.367,-3.707 11.57,-7.1328 3.219,-3.3985 5.664,-7.5781 7.344,-12.5117 1.668,-4.9493 2.508,-11.0391 2.508,-18.2891 0,-6.3555 -0.789,-11.8477 -2.363,-16.4609 -1.911,-5.6133 -4.649,-10.168 -8.223,-13.6446 -2.68,-2.6484 -6.313,-4.6992 -10.891,-6.17576 -3.414,-1.09765 -7.992,-1.63671 -13.726,-1.63671 H 678.051 Z M 693.555,72.1914 V 20.9883 h 11.566 c 4.328,0 7.461,0.2344 9.391,0.7383 2.504,0.6289 4.59,1.6875 6.258,3.2031 1.66,1.5117 3.003,4.0156 4.054,7.4766 1.043,3.4531 1.578,8.1875 1.578,14.164 0,5.9805 -0.535,10.5508 -1.578,13.7539 -1.051,3.211 -2.519,5.711 -4.398,7.4922 -1.891,1.8008 -4.289,3.0078 -7.184,3.6367 -2.164,0.5039 -6.402,0.7383 -12.734,0.7383 z M 755.578,7.95313 V 85.2773 h 56.93 V 72.1914 h -41.43 V 55.0547 h 38.551 V 42.0352 H 771.078 V 20.9883 h 42.899 V 7.95313 Z m 118.633,0 V 72.1914 h -22.777 v 13.0859 h 61.023 V 72.1914 H 889.73 V 7.95313 Z m 48.258,0 V 85.2773 h 56.929 V 72.1914 H 937.969 V 55.0547 H 976.52 V 42.0352 H 937.969 V 20.9883 h 42.898 V 7.95313 Z m 120.691,28.42967 15.02,-4.789 c -2.31,-8.4454 -6.14,-14.711 -11.5,-18.8165 -5.35,-4.08589 -12.16,-6.14058 -20.4,-6.14058 -10.19,0 -18.58,3.51168 -25.14,10.51558 -6.562,7.0235 -9.855,16.6211 -9.855,28.7735 0,12.8711 3.309,22.8633 9.905,29.9922 6.6,7.1133 15.27,10.6758 26.03,10.6758 9.39,0 17.03,-2.7891 22.89,-8.3907 3.5,-3.2929 6.12,-8.0468 7.87,-14.2383 l -15.36,-3.6914 c -0.89,4.0157 -2.79,7.1797 -5.69,9.5039 -2.88,2.3243 -6.38,3.4766 -10.49,3.4766 -5.69,0 -10.32,-2.0508 -13.85,-6.1758 -3.55,-4.1054 -5.32,-10.7656 -5.32,-19.9843 0,-9.7774 1.74,-16.7461 5.24,-20.8868 3.49,-4.1562 8.03,-6.2265 13.6,-6.2265 4.14,0 7.68,1.3125 10.64,3.9609 2.97,2.6289 5.1,6.7852 6.41,12.4414 z M 1071.64,7.95313 V 85.2773 h 15.09 l 31.43,-51.6328 v 51.6328 h 14.41 V 7.95313 H 1117 L 1086.05,58.3828 V 7.95313 Z m 74.18,38.18747 c 0,7.8828 1.16,14.4922 3.5,19.8399 1.75,3.9258 4.13,7.4687 7.16,10.6054 3.02,3.1133 6.32,5.4375 9.92,6.9493 4.79,2.0507 10.3,3.0586 16.55,3.0586 11.32,0 20.37,-3.5274 27.16,-10.6055 6.8,-7.0547 10.19,-16.8828 10.19,-29.4688 0,-12.4961 -3.37,-22.2578 -10.11,-29.3125 -6.74,-7.039 -15.76,-10.57028 -27.02,-10.57028 -11.42,0 -20.51,3.51168 -27.25,10.51558 -6.74,7.0235 -10.1,16.6915 -10.1,28.9883 z m 15.97,0.5235 c 0,-8.75 2.01,-15.3946 6.02,-19.9141 4.02,-4.5195 9.12,-6.7695 15.3,-6.7695 6.17,0 11.25,2.2343 15.22,6.7343 3.95,4.4805 5.94,11.1993 5.94,20.1641 0,8.8594 -1.93,15.4649 -5.78,19.8399 -3.86,4.3593 -8.99,6.5351 -15.38,6.5351 -6.4,0 -11.55,-2.2148 -15.46,-6.625 -3.9,-4.4101 -5.86,-11.0547 -5.86,-19.9648 z M 1232.82,7.95313 V 84.6523 h 15.5 v -63.664 h 38.55 V 7.95313 Z m 61.97,38.18747 c 0,7.8828 1.17,14.4922 3.51,19.8399 1.75,3.9258 4.13,7.4687 7.15,10.6054 3.02,3.1133 6.33,5.4375 9.93,6.9493 4.78,2.0507 10.29,3.0586 16.55,3.0586 11.32,0 20.36,-3.5274 27.16,-10.6055 6.79,-7.0547 10.19,-16.8828 10.19,-29.4688 0,-12.4961 -3.38,-22.2578 -10.12,-29.3125 -6.74,-7.039 -15.75,-10.57028 -27.02,-10.57028 -11.42,0 -20.51,3.51168 -27.25,10.51558 -6.74,7.0235 -10.1,16.6915 -10.1,28.9883 z m 15.97,0.5235 c 0,-8.75 2.02,-15.3946 6.03,-19.9141 4.02,-4.5195 9.12,-6.7695 15.3,-6.7695 6.17,0 11.25,2.2343 15.21,6.7343 3.96,4.4805 5.94,11.1993 5.94,20.1641 0,8.8594 -1.93,15.4649 -5.77,19.8399 -3.86,4.3593 -8.99,6.5351 -15.38,6.5351 -6.4,0 -11.55,-2.2148 -15.46,-6.625 -3.9,-4.4101 -5.87,-11.0547 -5.87,-19.9648 z m 11.75,43.0468 7.22,15.7691 h 16.5 l -14.41,-15.7691 z m 94.6,-53.3281 v 13.0313 h 33.41 V 18.6094 c -3.25,-3.168 -7.95,-5.9571 -14.12,-8.3672 -6.17,-2.39845 -12.4,-3.60548 -18.72,-3.60548 -8.03,0 -15.03,1.69141 -21.01,5.08208 -5.97,3.3984 -10.46,8.2421 -13.46,14.5585 -3.01,6.3243 -4.51,13.1836 -4.51,20.6016 0,8.0469 1.68,15.2109 5.03,21.4766 3.36,6.25 8.26,11.0547 14.73,14.3906 4.92,2.5703 11.05,3.8477 18.38,3.8477 9.53,0 16.99,-2.0157 22.34,-6.0274 5.36,-4.0351 8.81,-9.5976 10.34,-16.707 l -15.39,-2.9024 c -1.09,3.8008 -3.13,6.8047 -6.11,9.0039 -2.99,2.1954 -6.71,3.293 -11.18,3.293 -6.77,0 -12.16,-2.1601 -16.16,-6.4805 -4.01,-4.3398 -5.99,-10.75 -5.99,-19.2617 0,-9.164 2.02,-16.0625 6.08,-20.6562 4.04,-4.586 9.35,-6.875 15.91,-6.875 3.25,0 6.51,0.6484 9.78,1.9258 3.25,1.2773 6.06,2.8437 8.4,4.664 v 9.8125 z M 1464.35,7.95313 V 85.2773 h 15.5 V 7.95313 Z m 79.42,28.42967 15.02,-4.789 c -2.31,-8.4454 -6.13,-14.711 -11.5,-18.8165 -5.34,-4.08589 -12.15,-6.14058 -20.4,-6.14058 -10.19,0 -18.57,3.51168 -25.14,10.51558 -6.56,7.0235 -9.85,16.6211 -9.85,28.7735 0,12.8711 3.31,22.8633 9.9,29.9922 6.61,7.1133 15.27,10.6758 26.04,10.6758 9.39,0 17.02,-2.7891 22.89,-8.3907 3.5,-3.2929 6.11,-8.0468 7.86,-14.2383 l -15.35,-3.6914 c -0.9,4.0157 -2.79,7.1797 -5.69,9.5039 -2.88,2.3243 -6.38,3.4766 -10.5,3.4766 -5.68,0 -10.31,-2.0508 -13.85,-6.1758 -3.54,-4.1054 -5.31,-10.7656 -5.31,-19.9843 0,-9.7774 1.73,-16.7461 5.24,-20.8868 3.48,-4.1562 8.03,-6.2265 13.6,-6.2265 4.13,0 7.67,1.3125 10.64,3.9609 2.97,2.6289 5.09,6.7852 6.4,12.4414 z m 97.59,-28.42967 h -16.88 l -6.71,17.57027 h -30.7 l -6.32,-17.57027 h -16.45 l 29.91,77.32417 h 16.4 z M 1612.8,38.543 1602.22,67.2383 1591.85,38.543 Z M 1675.49,7.95313 V 85.2773 h 52.65 V 72.1914 h -37.13 v -18.293 h 32.05 V 40.8086 h -32.05 V 7.95313 Z m 65.44,0 V 85.2773 h 56.93 V 72.1914 h -41.43 V 55.0547 h 38.55 V 42.0352 h -38.55 V 20.9883 h 42.89 V 7.95313 Z m 71.5,77.32417 h 28.34 c 6.38,0 11.25,-0.4843 14.61,-1.4726 4.5,-1.332 8.36,-3.707 11.57,-7.1328 3.21,-3.3985 5.66,-7.5781 7.34,-12.5117 1.67,-4.9493 2.51,-11.0391 2.51,-18.2891 0,-6.3555 -0.79,-11.8477 -2.37,-16.4609 -1.91,-5.6133 -4.64,-10.168 -8.22,-13.6446 -2.68,-2.6484 -6.31,-4.6992 -10.89,-6.17576 -3.41,-1.09765 -7.99,-1.63671 -13.73,-1.63671 h -29.16 z m 15.5,-13.0859 V 20.9883 h 11.57 c 4.32,0 7.45,0.2344 9.39,0.7383 2.5,0.6289 4.59,1.6875 6.25,3.2031 1.66,1.5117 3,4.0156 4.06,7.4766 1.04,3.4531 1.58,8.1875 1.58,14.164 0,5.9805 -0.54,10.5508 -1.58,13.7539 -1.06,3.211 -2.52,5.711 -4.4,7.4922 -1.89,1.8008 -4.29,3.0078 -7.19,3.6367 -2.16,0.5039 -6.4,0.7383 -12.72,0.7383 z M 1889.95,7.95313 V 85.2773 h 56.93 V 72.1914 h -41.43 V 55.0547 H 1944 V 42.0352 h -38.55 V 20.9883 h 42.9 V 7.95313 Z m 71.59,0 V 85.2773 h 32.65 c 8.2,0 14.16,-0.6992 17.88,-2.0859 3.72,-1.3828 6.7,-3.8555 8.94,-7.3984 2.24,-3.5664 3.34,-7.6172 3.34,-12.1875 0,-5.7969 -1.69,-10.6055 -5.07,-14.3867 -3.38,-3.7618 -8.46,-6.1563 -15.2,-7.1329 3.36,-1.9765 6.13,-4.1406 8.31,-6.4961 2.18,-2.3593 5.12,-6.5351 8.82,-12.5507 l 9.38,-15.08597 h -18.54 l -11.21,16.83207 c -3.98,6.0195 -6.7,9.7968 -8.17,11.3593 -1.47,1.5703 -3.02,2.6328 -4.67,3.2227 -1.64,0.582 -4.23,0.8672 -7.81,0.8672 h -3.12 V 7.95313 Z m 15.53,44.63277 h 11.45 c 7.44,0 12.09,0.3047 13.95,0.9375 1.84,0.6289 3.29,1.7266 4.35,3.2774 1.03,1.5469 1.57,3.4726 1.57,5.7969 0,2.6093 -0.7,4.6953 -2.07,6.3007 -1.38,1.6016 -3.33,2.6094 -5.85,3.0391 -1.26,0.1641 -5.03,0.2539 -11.32,0.2539 h -12.08 z M 2108.23,7.95313 h -16.88 l -6.71,17.57027 h -30.7 l -6.33,-17.57027 h -16.45 l 29.92,77.32417 h 16.39 z M 2079.67,38.543 2069.09,67.2383 2058.72,38.543 Z M 2116.86,7.95313 V 84.6523 h 15.5 v -63.664 h 38.55 V 7.95313 Z m 92.94,77.32417 h 28.34 c 6.38,0 11.25,-0.4843 14.61,-1.4726 4.5,-1.332 8.36,-3.707 11.57,-7.1328 3.22,-3.3985 5.66,-7.5781 7.34,-12.5117 1.66,-4.9493 2.51,-11.0391 2.51,-18.2891 0,-6.3555 -0.79,-11.8477 -2.37,-16.4609 -1.91,-5.6133 -4.64,-10.168 -8.22,-13.6446 -2.68,-2.6484 -6.31,-4.6992 -10.89,-6.17576 -3.41,-1.09765 -7.99,-1.63671 -13.73,-1.63671 h -29.16 z m 15.5,-13.0859 V 20.9883 h 11.57 c 4.33,0 7.46,0.2344 9.39,0.7383 2.5,0.6289 4.59,1.6875 6.26,3.2031 1.66,1.5117 3,4.0156 4.05,7.4766 1.04,3.4531 1.58,8.1875 1.58,14.164 0,5.9805 -0.54,10.5508 -1.58,13.7539 -1.05,3.211 -2.52,5.711 -4.4,7.4922 -1.89,1.8008 -4.29,3.0078 -7.18,3.6367 -2.17,0.5039 -6.4,0.7383 -12.74,0.7383 z m 58.88,-26.0508 c 0,7.8828 1.16,14.4922 3.5,19.8399 1.75,3.9258 4.13,7.4687 7.16,10.6054 3.02,3.1133 6.32,5.4375 9.91,6.9493 4.8,2.0507 10.31,3.0586 16.56,3.0586 11.32,0 20.37,-3.5274 27.16,-10.6055 6.8,-7.0547 10.19,-16.8828 10.19,-29.4688 0,-12.4961 -3.37,-22.2578 -10.11,-29.3125 -6.75,-7.039 -15.76,-10.57028 -27.02,-10.57028 -11.42,0 -20.51,3.51168 -27.25,10.51558 -6.74,7.0235 -10.1,16.6915 -10.1,28.9883 z m 15.97,0.5235 c 0,-8.75 2.01,-15.3946 6.02,-19.9141 4.02,-4.5195 9.12,-6.7695 15.3,-6.7695 6.17,0 11.25,2.2343 15.22,6.7343 3.95,4.4805 5.94,11.1993 5.94,20.1641 0,8.8594 -1.93,15.4649 -5.78,19.8399 -3.86,4.3593 -8.99,6.5351 -15.38,6.5351 -6.4,0 -11.55,-2.2148 -15.46,-6.625 -3.9,-4.4101 -5.86,-11.0547 -5.86,-19.9648 z M 2400.57,7.95313 V 85.2773 h 24.88 c 9.42,0 15.57,-0.3906 18.43,-1.1679 4.4,-1.1485 8.1,-3.6719 11.07,-7.5625 2.97,-3.8828 4.45,-8.9102 4.45,-15.0508 0,-4.75 -0.86,-8.75 -2.58,-11.9688 -1.71,-3.246 -3.87,-5.7812 -6.52,-7.6367 -2.63,-1.8359 -5.31,-3.0586 -8.03,-3.6562 -3.7,-0.7344 -9.06,-1.1133 -16.09,-1.1133 h -10.11 V 7.95313 Z m 15.5,64.23827 V 50.2617 h 8.48 c 6.12,0 10.21,0.3985 12.27,1.2071 2.06,0.8085 3.66,2.0703 4.84,3.8007 1.16,1.7266 1.75,3.7227 1.75,6.0118 0,2.8085 -0.82,5.1289 -2.46,6.9687 -1.63,1.8203 -3.72,2.9688 -6.23,3.4219 -1.85,0.3594 -5.57,0.5195 -11.15,0.5195 z M 2533.42,7.95313 h -16.88 l -6.7,17.57027 h -30.7 l -6.33,-17.57027 h -16.45 l 29.91,77.32417 h 16.4 z M 2504.87,38.543 2494.28,67.2383 2483.91,38.543 Z M 2541.68,7.95313 V 85.2773 h 32.65 c 8.21,0 14.16,-0.6992 17.88,-2.0859 3.72,-1.3828 6.7,-3.8555 8.94,-7.3984 2.23,-3.5664 3.34,-7.6172 3.34,-12.1875 0,-5.7969 -1.7,-10.6055 -5.08,-14.3867 -3.37,-3.7618 -8.45,-6.1563 -15.2,-7.1329 3.37,-1.9765 6.14,-4.1406 8.32,-6.4961 2.18,-2.3593 5.11,-6.5351 8.81,-12.5507 l 9.39,-15.08597 h -18.54 l -11.21,16.83207 c -3.99,6.0195 -6.7,9.7968 -8.17,11.3593 -1.47,1.5703 -3.02,2.6328 -4.67,3.2227 -1.64,0.582 -4.23,0.8672 -7.81,0.8672 h -3.13 V 7.95313 Z m 15.52,44.63277 h 11.46 c 7.44,0 12.09,0.3047 13.95,0.9375 1.84,0.6289 3.28,1.7266 4.34,3.2774 1.04,1.5469 1.58,3.4726 1.58,5.7969 0,2.6093 -0.7,4.6953 -2.08,6.3007 -1.37,1.6016 -3.32,2.6094 -5.84,3.0391 -1.26,0.1641 -5.03,0.2539 -11.32,0.2539 H 2557.2 Z M 2688.37,7.95313 h -16.89 l -6.7,17.57027 h -30.7 l -6.33,-17.57027 h -16.45 l 29.92,77.32417 h 16.39 z M 2659.81,38.543 2649.23,67.2383 2638.86,38.543 Z M 2696.73,7.95313 V 85.2773 h 15.09 l 31.43,-51.6328 v 51.6328 h 14.41 V 7.95313 h -15.57 L 2711.14,58.3828 V 7.95313 Z m 146.58,0 h -16.88 l -6.71,17.57027 h -30.7 L 2782.7,7.95313 h -16.45 l 29.91,77.32417 h 16.39 z M 2814.75,38.543 2804.17,67.2383 2793.8,38.543 Z m -19.48,51.1679 7.22,15.7691 h 16.5 l -14.41,-15.7691 h -9.31"
         style="fill:#231f20;fill-opacity:1;fill-rule:nonzero;stroke:none"
         id="path14"
         inkscape:connector-curvature="0" /><path
         d="m 1168.53,149.367 v 717.582 h 672.83 V 725.664 h -493.1 V 149.367 h -179.73"
         style="fill:#f6c212;fill-opacity:1;fill-rule:evenodd;stroke:none"
         id="path16"
         inkscape:connector-curvature="0" /><path
         d="m 2359.1,151.387 v 533.945 h 227 c 57.06,0 98.46,-4.844 124.32,-14.422 25.86,-9.57 46.62,-26.601 62.15,-51.094 15.55,-24.617 23.25,-52.586 23.25,-84.164 0,-40.031 -11.81,-73.222 -35.3,-99.328 -23.5,-25.98 -58.81,-42.519 -105.67,-49.23 23.37,-13.676 42.64,-28.59 57.81,-44.879 15.16,-16.285 35.55,-45.129 61.28,-86.649 l 65.27,-104.179 h -128.92 l -77.95,116.238 c -27.72,41.52 -46.61,67.629 -56.81,78.445 -10.19,10.817 -21.01,18.149 -32.44,22.25 -11.44,3.977 -29.46,5.969 -54.33,5.969 H 2467 V 151.387 Z M 561.438,1045.39 V 528.551 C 561.438,375.938 512.676,275.91 375.449,275.91 238.219,275.91 189.5,375.938 189.5,528.551 V 1045.39 H 9.94922 V 473.406 c 0,-239.793 135.91378,-338.597 365.49978,-338.597 229.567,0 365.485,98.804 365.485,338.597 V 904.332 H 948.438 V 150.215 h 179.552 v 754.117 h 714.46 V 1045.39 Z M 1387.8,683.453 V 149.367 h 168.9 v 392.887 h 284.66 v 141.199 z m 530.52,-532.07 v 533.945 h 172.93 c 65.51,0 108.27,-2.734 128.16,-8.078 30.59,-7.961 56.32,-25.363 76.96,-52.219 20.63,-26.847 30.95,-61.531 30.95,-103.926 0,-32.82 -5.96,-60.417 -17.9,-82.671 -11.93,-22.375 -26.97,-39.907 -45.37,-52.711 -18.28,-12.684 -36.92,-21.133 -55.82,-25.235 -25.73,-5.097 -63.03,-7.711 -111.89,-7.711 h -70.23 V 151.383 Z m 107.79,443.566 V 443.531 h 58.92 c 42.52,0 70.99,2.739 85.28,8.328 14.3,5.598 25.48,14.297 33.69,26.235 8.08,11.933 12.19,25.73 12.19,41.519 0,19.395 -5.72,35.434 -17.16,48.11 -11.32,12.554 -25.86,20.515 -43.26,23.621 -12.93,2.488 -38.79,3.605 -77.58,3.605 z M 2467,459.57 h 79.69 c 51.72,0 84.04,2.114 96.97,6.465 12.8,4.352 22.87,11.938 30.21,22.625 7.21,10.692 10.94,23.996 10.94,40.031 0,18.028 -4.85,32.446 -14.42,43.512 -9.58,11.063 -23.12,18.027 -40.66,21.008 -8.69,1.121 -34.93,1.742 -78.69,1.742 H 2467 V 459.57"
         style="fill:#231f20;fill-opacity:1;fill-rule:nonzero;stroke:none"
         id="path18"
         inkscape:connector-curvature="0" /></g><text
       xml:space="preserve"
       style="font-style:normal;font-weight:normal;font-size:30px;line-height:1.25;font-family:sans-serif;letter-spacing:0px;word-spacing:0px;fill:#000000;fill-opacity:1;stroke:none;stroke-width:0.75;"
       x="181.42877"
       y="-92.788918"
       id="text4497"
       transform="scale(1,-1)"><tspan
         sodipodi:role="line"
         id="tspan4495"
         x="181.42877"
         y="-92.788918"
         style="font-style:normal;font-variant:normal;font-weight:bold;font-stretch:normal;font-size:12px;line-height:0;font-family:sans-serif;-inkscape-font-specification:'sans-serif Bold';text-align:center;text-anchor:middle;stroke-width:0.75">Universidade Tecnológica</tspan><tspan
         sodipodi:role="line"
         x="181.42877"
         y="-55.288918"
         style="font-style:normal;font-variant:normal;font-weight:bold;font-stretch:normal;font-size:15px;line-height:0;font-family:sans-serif;-inkscape-font-specification:'sans-serif Bold';text-align:center;text-anchor:middle;stroke-width:0.75"
         id="tspan4499" /></text>
<text
       xml:space="preserve"
       style="font-style:normal;font-weight:normal;font-size:30px;line-height:1.25;font-family:sans-serif;letter-spacing:0px;word-spacing:0px;fill:#000000;fill-opacity:1;stroke:none;stroke-width:0.75;"
       x="102.8808"
       y="-77.246208"
       id="text4503"
       transform="scale(1,-1)"><tspan
         sodipodi:role="line"
         id="tspan4501"
         x="102.8808"
         y="-77.246208"
         style="font-style:normal;font-variant:normal;font-weight:bold;font-stretch:normal;font-size:15px;font-family:sans-serif;-inkscape-font-specification:'sans-serif Bold';stroke-width:0.75">Federal do Paraná</tspan></text>
<path
       style="fill:none;stroke:#000000;stroke-width:0.75px;stroke-linecap:butt;stroke-linejoin:miter;stroke-opacity:1;"
       d="M 0,71.395687 H 285.00294"
       id="path4505"
       inkscape:connector-curvature="0" /></g></svg>